bicep_curl
version=1
nRows=181
nColumns=3
inDegrees=yes

# SIMM Motion File Header:
name bicep_curl
datacolumns 3
datarows 181
otherdata 1
range 0.0000 0.1800
endheader
time	/jointset/r_shoulder/r_shoulder_elev/value	/jointset/r_elbow/r_elbow_flex/value
0.0000	0.0000	25.0600
0.0010	0.0000	25.1339
0.0020	0.0000	25.2078
0.0030	0.0000	25.2818
0.0040	0.0000	25.3557
0.0050	0.0000	25.4296
0.0060	0.0000	25.5035
0.0070	0.0000	25.5774
0.0080	0.0000	25.6514
0.0090	0.0000	25.7253
0.0100	0.0000	25.7992
0.0110	0.0000	25.8731
0.0120	0.0000	25.9470
0.0130	0.0000	26.0210
0.0140	0.0000	26.0949
0.0150	0.0000	26.1688
0.0160	0.0000	26.2427
0.0170	0.0000	26.3166
0.0180	0.0000	26.3906
0.0190	0.0000	26.4645
0.0200	0.0000	26.5384
0.0210	0.0000	26.6123
0.0220	0.0000	26.6862
0.0230	0.0000	26.7602
0.0240	0.0000	26.8341
0.0250	0.0000	26.9080
0.0260	0.0000	26.9819
0.0270	0.0000	27.0558
0.0280	0.0000	27.1298
0.0290	0.0000	27.2037
0.0300	0.0000	27.2776
0.0310	0.0000	27.3515
0.0320	0.0000	27.4254
0.0330	0.0000	27.4994
0.0340	0.0000	27.5733
0.0350	0.0000	27.6472
0.0360	0.0000	27.7211
0.0370	0.0000	27.7950
0.0380	0.0000	27.8690
0.0390	0.0000	27.9429
0.0400	0.0000	28.0168
0.0410	0.0000	28.0907
0.0420	0.0000	28.1646
0.0430	0.0000	28.2386
0.0440	0.0000	28.3125
0.0450	0.0000	28.3864
0.0460	0.0000	28.4603
0.0470	0.0000	28.5342
0.0480	0.0000	28.6082
0.0490	0.0000	28.6821
0.0500	0.0000	28.7560
0.0510	0.0000	28.8299
0.0520	0.0000	28.9038
0.0530	0.0000	28.9778
0.0540	0.0000	29.0517
0.0550	0.0000	29.1256
0.0560	0.0000	29.1995
0.0570	0.0000	29.2734
0.0580	0.0000	29.3474
0.0590	0.0000	29.4213
0.0600	0.0000	29.4952
0.0610	0.0000	29.5691
0.0620	0.0000	29.6430
0.0630	0.0000	29.7170
0.0640	0.0000	29.7909
0.0650	0.0000	29.8648
0.0660	0.0000	29.9387
0.0670	0.0000	30.0126
0.0680	0.0000	30.0866
0.0690	0.0000	30.1605
0.0700	0.0000	30.2344
0.0710	0.0000	30.3083
0.0720	0.0000	30.3822
0.0730	0.0000	30.4562
0.0740	0.0000	30.5301
0.0750	0.0000	30.6040
0.0760	0.0000	30.6779
0.0770	0.0000	30.7518
0.0780	0.0000	30.8258
0.0790	0.0000	30.8997
0.0800	0.0000	30.9736
0.0810	0.0000	31.0475
0.0820	0.0000	31.1214
0.0830	0.0000	31.1954
0.0840	0.0000	31.2693
0.0850	0.0000	31.3432
0.0860	0.0000	31.4171
0.0870	0.0000	31.4910
0.0880	0.0000	31.5650
0.0890	0.0000	31.6389
0.0900	0.0000	31.7128
0.0910	0.0000	31.7867
0.0920	0.0000	31.8606
0.0930	0.0000	31.9346
0.0940	0.0000	32.0085
0.0950	0.0000	32.0824
0.0960	0.0000	32.1563
0.0970	0.0000	32.2302
0.0980	0.0000	32.3042
0.0990	0.0000	32.3781
0.1000	0.0000	32.4520
0.1010	0.0000	32.5259
0.1020	0.0000	32.5998
0.1030	0.0000	32.6738
0.1040	0.0000	32.7477
0.1050	0.0000	32.8216
0.1060	0.0000	32.8955
0.1070	0.0000	32.9694
0.1080	0.0000	33.0434
0.1090	0.0000	33.1173
0.1100	0.0000	33.1912
0.1110	0.0000	33.2651
0.1120	0.0000	33.3390
0.1130	0.0000	33.4130
0.1140	0.0000	33.4869
0.1150	0.0000	33.5608
0.1160	0.0000	33.6347
0.1170	0.0000	33.7086
0.1180	0.0000	33.7826
0.1190	0.0000	33.8565
0.1200	0.0000	33.9304
0.1210	0.0000	34.0043
0.1220	0.0000	34.0782
0.1230	0.0000	34.1522
0.1240	0.0000	34.2261
0.1250	0.0000	34.3000
0.1260	0.0000	34.3739
0.1270	0.0000	34.4478
0.1280	0.0000	34.5218
0.1290	0.0000	34.5957
0.1300	0.0000	34.6696
0.1310	0.0000	34.7435
0.1320	0.0000	34.8174
0.1330	0.0000	34.8914
0.1340	0.0000	34.9653
0.1350	0.0000	35.0392
0.1360	0.0000	35.1131
0.1370	0.0000	35.1870
0.1380	0.0000	35.2610
0.1390	0.0000	35.3349
0.1400	0.0000	35.4088
0.1410	0.0000	35.4827
0.1420	0.0000	35.5566
0.1430	0.0000	35.6306
0.1440	0.0000	35.7045
0.1450	0.0000	35.7784
0.1460	0.0000	35.8523
0.1470	0.0000	35.9262
0.1480	0.0000	36.0002
0.1490	0.0000	36.0741
0.1500	0.0000	36.1480
0.1510	0.0000	36.2219
0.1520	0.0000	36.2958
0.1530	0.0000	36.3698
0.1540	0.0000	36.4437
0.1550	0.0000	36.5176
0.1560	0.0000	36.5915
0.1570	0.0000	36.6654
0.1580	0.0000	36.7394
0.1590	0.0000	36.8133
0.1600	0.0000	36.8872
0.1610	0.0000	36.9611
0.1620	0.0000	37.0350
0.1630	0.0000	37.1090
0.1640	0.0000	37.1829
0.1650	0.0000	37.2568
0.1660	0.0000	37.3307
0.1670	0.0000	37.4046
0.1680	0.0000	37.4786
0.1690	0.0000	37.5525
0.1700	0.0000	37.6264
0.1710	0.0000	37.7003
0.1720	0.0000	37.7742
0.1730	0.0000	37.8482
0.1740	0.0000	37.9221
0.1750	0.0000	37.9960
0.1760	0.0000	38.0699
0.1770	0.0000	38.1438
0.1780	0.0000	38.2178
0.1790	0.0000	38.2917
0.1800	0.0000	38.3656
